 http://img834.imageshack.us/img834/6356/otheorphankillerwantsyo.jpg

Country.......: USA
Genre.........: Horror
Date release..: 2011 [World]
Director......: Matt Farnsworth
Writers.......: Matt Farnsworth
Duration......: 83 min.
More..........: http://www.imdb.com/title/tt1179071
Trailer.......:

Pilot :
The Orphan Killer is a tour de force murder flick that defies classification. It goes far beyond current trends in gore and breaks open a new suffering genre of horror. Marcus Miller is a serial murderer hellbent on teaching his estranged sister Audrey what it means to have family loyalty. His lessons are taught in massive doses of vulgar and unimaginable pain. Throughout her brutal torture we learn that Marcus is not the only Miller with Killer in the bloodline as Audrey proves to be a formidable adversary.

Cats :
Diane Foster   	 ...  	Audrey
David Backus 	... 	The Orphan Killer
Matt Farnsworth 	... 	Mike
James McCaffrey 	... 	Detective Jones
John Savage 	... 	Detective Walker
Karen Young 	... 	Sister Mary
Charlotte Maier 	... 	Sister Constance
Spencer List 	... 	Young Marcus
Dana DeVestern 	... 	Young Audrey
Margot White 	... 	Jenny Miller
Mike Doyle 	... 	Marcus Miller Sr.
Ivan Martin 	... 	Jim
Karen Olivo 	... 	Angie
Matthew Arkin 	... 	Bob
Ezra Knight 	... 	Simon 

Data Technical :
!!! SAMPLE !!!
Audio.....: English
Subtitles.: None
Format                           : AVI
Format/Info                      : Audio Video Interleave
File size                        : 896 MiB
Duration                         : 1h 22mn
Overall bit rate                 : 1 518 Kbps
Writing application              : VirtualDubMod 1.5.4.1 (build 2178/release)
Writing library                  : VirtualDubMod build 2178/release
Video
ID                               : 0
Format                           : MPEG-4 Visual
Format profile                   : Advanced Simple@L5
Format settings, BVOP            : Yes
Format settings, QPel            : No
Format settings, GMC             : No warppoints
Format settings, Matrix          : Custom
Codec ID                         : XVID
Codec ID/Hint                    : XviD
Duration                         : 1h 22mn
Bit rate                         : 1 254 Kbps
Width                            : 720 pixels
Height                           : 304 pixels
Display aspect ratio             : 2.35:1
Frame rate                       : 29.970 fps
Color space                      : YUV
Chroma subsampling               : 4:2:0
Bit depth                        : 8 bits
Scan type                        : Progressive
Bits/(Pixel*Frame)               : 0.191
Stream size                      : 741 MiB (83%)
Writing library                  : XviD 64
Audio
ID                               : 1
Format                           : AC-3
Format/Info                      : Audio Coding 3
Mode extension                   : CM (complete main)
Codec ID                         : 2000
Duration                         : 1h 22mn
Bit rate mode                    : Constant
Bit rate                         : 256 Kbps
Channel(s)                       : 6 channels
Channel positions                : Front: L C R, Side: L R, LFE
Sampling rate                    : 48.0 KHz
Bit depth                        : 16 bits
Stream size                      : 151 MiB (17%)
Alignment                        : Aligned on interleaves
Interleave, duration             : 96 ms (2.88 video frames)
Interleave, preload duration     : 96 ms

Screen : 
http://img846.imageshack.us/img846/2783/theorphankiller2011s1.jpg 
http://img641.imageshack.us/img641/8638/theorphankiller2011s2.jpg 
http://img845.imageshack.us/img845/3443/theorphankiller2011s3.jpg 
http://img707.imageshack.us/img707/8721/theorphankiller2011s4.jpg 
http://img823.imageshack.us/img823/4150/theorphankiller2011s5.jpg